<svg width="154" height="43" viewBox="0 0 154 43" fill="none" xmlns="http://www.w3.org/2000/svg">
<g clip-path="url(#clip0_1_977)">
<rect x="6" y="6" width="31.4622" height="31.4622" rx="15.7311" fill="#071B35"/>
<g filter="url(#filter0_d_1_977)">
<ellipse cx="21.7306" cy="21.73" rx="5.4091" ry="5.29251" fill="url(#paint0_linear_1_977)"/>
</g>
<circle cx="21.7263" cy="21.7268" r="2.87527" fill="url(#paint1_linear_1_977)"/>
<path d="M32.7957 14.7091L22.5145 9.0813C22.2741 8.94854 22.004 8.87891 21.7294 8.87891C21.4548 8.87891 21.1846 8.94854 20.9443 9.0813L10.663 14.7103C10.4058 14.851 10.1911 15.0584 10.0415 15.3106C9.89183 15.5628 9.81275 15.8505 9.8125 16.1438V27.3176C9.81275 27.6109 9.89183 27.8986 10.0415 28.1508C10.1911 28.403 10.4058 28.6104 10.663 28.7511L20.9443 34.3801C21.1847 34.5127 21.4548 34.5822 21.7294 34.5822C22.0039 34.5822 22.274 34.5127 22.5145 34.3801L32.7957 28.7511C33.053 28.6104 33.2676 28.403 33.4173 28.1508C33.5669 27.8986 33.646 27.6109 33.6462 27.3176V16.1438C33.6462 15.8503 33.5672 15.5623 33.4176 15.3099C33.2679 15.0575 33.0531 14.85 32.7957 14.7091ZM21.6125 10.3104C21.6469 10.2916 21.6855 10.2817 21.7247 10.2817C21.7639 10.2817 21.8025 10.2916 21.8369 10.3104L31.6028 15.6554L21.7294 21.0578L11.8559 15.6554L21.6125 10.3104ZM11.3313 27.5221C11.2955 27.5014 11.2658 27.4716 11.2453 27.4356C11.2247 27.3997 11.2141 27.359 11.2145 27.3176V16.9009L21.0284 22.2751V32.8297L11.3313 27.5221ZM32.1181 27.5221L22.4304 32.8297V22.2728L32.2443 16.8985V27.3153C32.245 27.357 32.2346 27.3983 32.2141 27.4346C32.1935 27.471 32.1636 27.5012 32.1274 27.5221H32.1181Z" fill="url(#paint2_linear_1_977)"/>
</g>
<path d="M42.8607 32V13.1232H55.1576V16.0626H46.5012V21.1054H53.4317V23.9639H46.5012V32H42.8607ZM56.7666 32V18.4087H60.4071V32H56.7666ZM58.6003 16.548C57.9531 16.548 57.4138 16.3592 56.9823 15.9817C56.5688 15.5862 56.3621 15.0918 56.3621 14.4985C56.3621 13.9052 56.5688 13.4198 56.9823 13.0423C57.4138 12.6468 57.9531 12.449 58.6003 12.449C59.2655 12.449 59.8048 12.6468 60.2183 13.0423C60.6498 13.4198 60.8655 13.9052 60.8655 14.4985C60.8655 15.0918 60.6498 15.5862 60.2183 15.9817C59.8048 16.3592 59.2655 16.548 58.6003 16.548ZM63.0071 32V18.4087H66.2161L66.4858 20.62C66.8993 19.8649 67.4836 19.2537 68.2387 18.7862C69.0117 18.3188 69.9286 18.0851 70.9893 18.0851C72.1219 18.0851 73.0747 18.3188 73.8478 18.7862C74.6208 19.2537 75.2051 19.9368 75.6006 20.8357C76.0141 21.7346 76.2208 22.8403 76.2208 24.1526V32H72.6073V24.5032C72.6073 23.4245 72.3736 22.5975 71.9061 22.0223C71.4567 21.447 70.7556 21.1593 69.8027 21.1593C69.1915 21.1593 68.6432 21.3031 68.1578 21.5908C67.6903 21.8784 67.3218 22.2919 67.0521 22.8313C66.7824 23.3526 66.6476 23.9908 66.6476 24.7459V32H63.0071Z" fill="#018961"/>
<path d="M85.1519 32.3236C83.7856 32.3236 82.5721 32.018 81.5114 31.4067C80.4507 30.7955 79.6237 29.9595 79.0305 28.8988C78.4372 27.8381 78.1405 26.6246 78.1405 25.2583C78.1405 23.856 78.4372 22.6245 79.0305 21.5638C79.6237 20.4851 80.4507 19.6402 81.5114 19.0289C82.5721 18.3997 83.7856 18.0851 85.1519 18.0851C86.8958 18.0851 88.361 18.5435 89.5475 19.4604C90.7341 20.3773 91.4892 21.6357 91.8128 23.2358H87.9565C87.7947 22.6065 87.4531 22.1121 86.9318 21.7526C86.4284 21.393 85.8261 21.2132 85.125 21.2132C84.4957 21.2132 83.9294 21.3751 83.4261 21.6987C82.9407 22.0043 82.5541 22.4627 82.2665 23.074C81.9968 23.6672 81.862 24.3774 81.862 25.2043C81.862 25.8336 81.9429 26.3999 82.1047 26.9033C82.2665 27.3887 82.4912 27.8111 82.7789 28.1707C83.0665 28.5123 83.4081 28.773 83.8036 28.9527C84.2171 29.1325 84.6575 29.2224 85.125 29.2224C85.5924 29.2224 86.0149 29.1415 86.3924 28.9797C86.7879 28.8179 87.1205 28.5932 87.3902 28.3055C87.6599 27.9999 87.8486 27.6314 87.9565 27.1999H91.8128C91.4892 28.764 90.7251 30.0134 89.5206 30.9483C88.334 31.8652 86.8778 32.3236 85.1519 32.3236ZM95.5995 37.9327L98.8895 30.4899H98.0804L92.6331 18.4087H96.5973L100.48 27.1729L103.986 18.4087H107.842L99.4558 37.9327H95.5995ZM114.491 32.3236C113.125 32.3236 111.911 32.018 110.851 31.4067C109.79 30.7955 108.963 29.9595 108.37 28.8988C107.776 27.8381 107.48 26.6246 107.48 25.2583C107.48 23.856 107.776 22.6245 108.37 21.5638C108.963 20.4851 109.79 19.6402 110.851 19.0289C111.911 18.3997 113.125 18.0851 114.491 18.0851C116.235 18.0851 117.7 18.5435 118.887 19.4604C120.073 20.3773 120.828 21.6357 121.152 23.2358H117.296C117.134 22.6065 116.792 22.1121 116.271 21.7526C115.767 21.393 115.165 21.2132 114.464 21.2132C113.835 21.2132 113.269 21.3751 112.765 21.6987C112.28 22.0043 111.893 22.4627 111.606 23.074C111.336 23.6672 111.201 24.3774 111.201 25.2043C111.201 25.8336 111.282 26.3999 111.444 26.9033C111.606 27.3887 111.83 27.8111 112.118 28.1707C112.406 28.5123 112.747 28.773 113.143 28.9527C113.556 29.1325 113.997 29.2224 114.464 29.2224C114.932 29.2224 115.354 29.1415 115.732 28.9797C116.127 28.8179 116.46 28.5932 116.729 28.3055C116.999 27.9999 117.188 27.6314 117.296 27.1999H121.152C120.828 28.764 120.064 30.0134 118.86 30.9483C117.673 31.8652 116.217 32.3236 114.491 32.3236ZM123.213 32V12.5838H126.853V32H123.213ZM135.849 32.3236C134.483 32.3236 133.27 32.036 132.209 31.4607C131.166 30.8674 130.348 30.0494 129.755 29.0067C129.18 27.946 128.892 26.7235 128.892 25.3392C128.892 23.9189 129.18 22.6695 129.755 21.5908C130.348 20.4941 131.166 19.6402 132.209 19.0289C133.252 18.3997 134.465 18.0851 135.849 18.0851C137.198 18.0851 138.375 18.3817 139.382 18.975C140.389 19.5683 141.171 20.3683 141.728 21.3751C142.286 22.3818 142.564 23.5234 142.564 24.7998C142.564 24.9796 142.564 25.1864 142.564 25.4201C142.564 25.6358 142.546 25.8605 142.51 26.0943H131.481V23.883H138.897C138.843 23.0021 138.528 22.3099 137.953 21.8065C137.396 21.3031 136.694 21.0514 135.849 21.0514C135.238 21.0514 134.672 21.1953 134.151 21.4829C133.629 21.7526 133.216 22.1751 132.91 22.7504C132.622 23.3257 132.479 24.0538 132.479 24.9347V25.7167C132.479 26.4538 132.613 27.101 132.883 27.6583C133.171 28.1977 133.566 28.6202 134.07 28.9258C134.573 29.2134 135.157 29.3572 135.822 29.3572C136.488 29.3572 137.036 29.2134 137.467 28.9258C137.917 28.6381 138.25 28.2696 138.465 27.8201H142.187C141.935 28.6651 141.512 29.4292 140.919 30.1123C140.326 30.7955 139.598 31.3348 138.735 31.7303C137.872 32.1258 136.91 32.3236 135.849 32.3236Z" fill="#071B35"/>
<defs>
<filter id="filter0_d_1_977" x="15.3373" y="15.9454" width="12.7867" height="12.5535" filterUnits="userSpaceOnUse" color-interpolation-filters="sRGB">
<feFlood flood-opacity="0" result="BackgroundImageFix"/>
<feColorMatrix in="SourceAlpha" type="matrix" values="0 0 0 0 0 0 0 0 0 0 0 0 0 0 0 0 0 0 127 0" result="hardAlpha"/>
<feOffset dy="0.492136"/>
<feGaussianBlur stdDeviation="0.492136"/>
<feComposite in2="hardAlpha" operator="out"/>
<feColorMatrix type="matrix" values="0 0 0 0 0.3 0 0 0 0 0.3 0 0 0 0 0.3 0 0 0 0.25 0"/>
<feBlend mode="normal" in2="BackgroundImageFix" result="effect1_dropShadow_1_977"/>
<feBlend mode="normal" in="SourceGraphic" in2="effect1_dropShadow_1_977" result="shape"/>
</filter>
<linearGradient id="paint0_linear_1_977" x1="21.1973" y1="15.8603" x2="25.2334" y2="25.5659" gradientUnits="userSpaceOnUse">
<stop stop-color="#CEFFE2"/>
<stop offset="1" stop-color="#BDFFD7"/>
</linearGradient>
<linearGradient id="paint1_linear_1_977" x1="24.6028" y1="23.0431" x2="20.1656" y2="22.272" gradientUnits="userSpaceOnUse">
<stop stop-color="#00968A"/>
<stop offset="1" stop-color="#02BE7A"/>
</linearGradient>
<linearGradient id="paint2_linear_1_977" x1="33.6512" y1="27.614" x2="15.1847" y2="24.6383" gradientUnits="userSpaceOnUse">
<stop offset="1" stop-color="#02BE86"/>
</linearGradient>
<clipPath id="clip0_1_977">
<rect x="6" y="6" width="31.4622" height="31.4622" rx="15.7311" fill="white"/>
</clipPath>
</defs>
</svg>
